<svg width="24" height="24" viewBox="0 0 24 24" fill="none" xmlns="http://www.w3.org/2000/svg">
<g clip-path="url(#clip0_710_231)">
<path d="M0 12C0 5.3726 5.3726 0 12 0C18.6274 0 24 5.3726 24 12C24 18.6274 18.6274 24 12 24C5.3726 24 0 18.6274 0 12Z" fill="#1769FF"/>
<path fill-rule="evenodd" clip-rule="evenodd" d="M11.8352 10.0224C11.8352 9.5599 11.7141 9.16345 11.4725 8.83155C11.0698 8.29105 10.3872 8.0141 9.42241 8H5.60001V15.8032H9.16426C9.56616 15.8032 9.93791 15.7691 10.2819 15.6985C10.6258 15.6273 10.9231 15.4973 11.1752 15.3065C11.3995 15.1402 11.5861 14.9353 11.7351 14.6925C11.9707 14.3257 12.0881 13.9107 12.0881 13.4481C12.0881 12.9997 11.985 12.6181 11.7803 12.3048C11.5733 11.9907 11.2693 11.7613 10.8659 11.6158C11.1316 11.4821 11.3325 11.3336 11.4695 11.1718C11.7141 10.8822 11.8352 10.4984 11.8352 10.0224ZM17.1688 9.33495H13.7792V8.3638H17.1688V9.33495ZM14.1743 12.3471C14.23 11.9714 14.3662 11.6737 14.5822 11.4539C14.7982 11.2341 15.1037 11.1242 15.4951 11.1242C15.8563 11.1242 16.1581 11.2274 16.4034 11.4346C16.6458 11.6432 16.7827 11.9461 16.8106 12.3471H14.1743ZM16.87 10.1501C17.2787 10.3298 17.6151 10.6149 17.88 11.004C18.1216 11.347 18.2766 11.7449 18.3474 12.1971C18.3888 12.4614 18.4053 12.8445 18.3986 13.3427H14.1366C14.1622 13.9211 14.3639 14.3272 14.7492 14.5596C14.9826 14.7044 15.2633 14.7771 15.5929 14.7771C15.9398 14.7771 16.2236 14.6888 16.4411 14.5128C16.5607 14.4171 16.6661 14.2849 16.7564 14.1156H18.318C18.2766 14.4571 18.087 14.8054 17.7513 15.1588C17.2275 15.7193 16.4938 16 15.5508 16C14.7718 16 14.0847 15.7639 13.4909 15.2902C12.8941 14.8172 12.5976 14.0466 12.5976 12.9804C12.5976 11.9803 12.8663 11.2133 13.4029 10.6795C13.941 10.1472 14.6371 9.87915 15.4943 9.87915C16.0038 9.87915 16.4621 9.96975 16.87 10.1501ZM7.17666 14.449V12.3679H9.12436C9.46306 12.3708 9.72721 12.4154 9.91536 12.5C10.2518 12.6522 10.4189 12.9306 10.4189 13.3375C10.4189 13.8171 10.2458 14.1409 9.89881 14.3116C9.70841 14.4029 9.44046 14.449 9.09731 14.449H7.17666ZM7.17666 9.355V11.0767H9.10031C9.44271 11.0767 9.72196 11.0121 9.93716 10.8829C10.1509 10.7538 10.2585 10.5251 10.2585 10.1984C10.2585 9.83385 10.1171 9.59405 9.83406 9.47675C9.58871 9.3958 9.27716 9.355 8.89861 9.355H7.17666Z" fill="white"/>
</g>
<defs>
<clipPath id="clip0_710_231">
<rect width="24" height="24" fill="white"/>
</clipPath>
</defs>
</svg>
