<svg width="31" height="21" viewBox="0 0 31 21" fill="none" xmlns="http://www.w3.org/2000/svg">
<path d="M7.84801 16.2287C7.4536 16.2287 7.09233 16.1326 6.7642 15.9403C6.43608 15.7448 6.17424 15.483 5.97869 15.1548C5.78646 14.8267 5.69034 14.4654 5.69034 14.071C5.69034 13.6733 5.78646 13.3104 5.97869 12.9822C6.17424 12.6541 6.43608 12.3923 6.7642 12.1967C7.09233 12.0012 7.4536 11.9034 7.84801 11.9034H9.00142V9.90483H7.84801C7.4536 9.90483 7.09233 9.80871 6.7642 9.61648C6.43608 9.42093 6.17424 9.16075 5.97869 8.83594C5.78646 8.50781 5.69034 8.14489 5.69034 7.74716C5.69034 7.34943 5.78646 6.98816 5.97869 6.66335C6.17424 6.33523 6.43608 6.07505 6.7642 5.88281C7.09233 5.68726 7.4536 5.58949 7.84801 5.58949C8.24574 5.58949 8.60866 5.68726 8.93679 5.88281C9.26491 6.07505 9.52675 6.33523 9.7223 6.66335C9.91785 6.98816 10.0156 7.34943 10.0156 7.74716V8.89062H12.0142V7.74716C12.0142 7.34943 12.1103 6.98816 12.3026 6.66335C12.4981 6.33523 12.7583 6.07505 13.0831 5.88281C13.4112 5.68726 13.7741 5.58949 14.1719 5.58949C14.5696 5.58949 14.9309 5.68726 15.2557 5.88281C15.5838 6.07505 15.844 6.33523 16.0362 6.66335C16.2318 6.98816 16.3295 7.34943 16.3295 7.74716C16.3295 8.14489 16.2318 8.50781 16.0362 8.83594C15.844 9.16075 15.5838 9.42093 15.2557 9.61648C14.9309 9.80871 14.5696 9.90483 14.1719 9.90483H13.0284V11.9034H14.1719C14.5696 11.9034 14.9309 12.0012 15.2557 12.1967C15.5838 12.3923 15.844 12.6541 16.0362 12.9822C16.2318 13.3104 16.3295 13.6733 16.3295 14.071C16.3295 14.4654 16.2318 14.8267 16.0362 15.1548C15.844 15.483 15.5838 15.7448 15.2557 15.9403C14.9309 16.1326 14.5696 16.2287 14.1719 16.2287C13.7741 16.2287 13.4112 16.1326 13.0831 15.9403C12.7583 15.7448 12.4981 15.483 12.3026 15.1548C12.1103 14.8267 12.0142 14.4654 12.0142 14.071V12.9176H10.0156V14.071C10.0156 14.4654 9.91785 14.8267 9.7223 15.1548C9.52675 15.483 9.26491 15.7448 8.93679 15.9403C8.60866 16.1326 8.24574 16.2287 7.84801 16.2287ZM7.84801 15.2145C8.06013 15.2145 8.25237 15.1631 8.42472 15.0604C8.60038 14.9576 8.73958 14.8201 8.84233 14.6477C8.94839 14.4721 9.00142 14.2798 9.00142 14.071V12.9176H7.84801C7.6392 12.9176 7.44697 12.9706 7.27131 13.0767C7.09896 13.1795 6.96141 13.3187 6.85866 13.4943C6.75592 13.6667 6.70455 13.8589 6.70455 14.071C6.70455 14.2798 6.75592 14.4721 6.85866 14.6477C6.96141 14.8201 7.09896 14.9576 7.27131 15.0604C7.44697 15.1631 7.6392 15.2145 7.84801 15.2145ZM7.84801 8.89062H9.00142V7.74716C9.00142 7.53504 8.94839 7.3428 8.84233 7.17045C8.73958 6.99811 8.60038 6.86056 8.42472 6.75781C8.25237 6.65507 8.06013 6.60369 7.84801 6.60369C7.6392 6.60369 7.44697 6.65507 7.27131 6.75781C7.09896 6.86056 6.96141 6.99811 6.85866 7.17045C6.75592 7.3428 6.70455 7.53504 6.70455 7.74716C6.70455 7.95928 6.75592 8.15317 6.85866 8.32883C6.96141 8.50118 7.09896 8.63873 7.27131 8.74148C7.44697 8.84091 7.6392 8.89062 7.84801 8.89062ZM13.0284 8.89062H14.1719C14.384 8.89062 14.5762 8.84091 14.7486 8.74148C14.9209 8.63873 15.0585 8.50118 15.1612 8.32883C15.264 8.15317 15.3153 7.95928 15.3153 7.74716C15.3153 7.53504 15.264 7.3428 15.1612 7.17045C15.0585 6.99811 14.9209 6.86056 14.7486 6.75781C14.5762 6.65507 14.384 6.60369 14.1719 6.60369C13.9598 6.60369 13.7659 6.65507 13.5902 6.75781C13.4179 6.86056 13.2803 6.99811 13.1776 7.17045C13.0781 7.3428 13.0284 7.53504 13.0284 7.74716V8.89062ZM14.1719 15.2145C14.384 15.2145 14.5762 15.1631 14.7486 15.0604C14.9209 14.9576 15.0585 14.8201 15.1612 14.6477C15.264 14.4721 15.3153 14.2798 15.3153 14.071C15.3153 13.8589 15.264 13.6667 15.1612 13.4943C15.0585 13.3187 14.9209 13.1795 14.7486 13.0767C14.5762 12.9706 14.384 12.9176 14.1719 12.9176H13.0284V14.071C13.0284 14.2798 13.0781 14.4721 13.1776 14.6477C13.2803 14.8201 13.4179 14.9576 13.5902 15.0604C13.7659 15.1631 13.9598 15.2145 14.1719 15.2145ZM10.0156 11.9034H12.0142V9.90483H10.0156V11.9034ZM24.8148 8.36364C24.7551 7.85985 24.5132 7.46875 24.089 7.19034C23.6647 6.91193 23.1444 6.77273 22.5279 6.77273C22.0771 6.77273 21.6827 6.84564 21.3446 6.99148C21.0099 7.13731 20.748 7.33783 20.5591 7.59304C20.3735 7.84825 20.2807 8.13826 20.2807 8.46307C20.2807 8.73485 20.3453 8.96851 20.4746 9.16406C20.6072 9.3563 20.7762 9.51705 20.9817 9.64631C21.1872 9.77225 21.4026 9.87666 21.628 9.95952C21.8534 10.0391 22.0605 10.1037 22.2495 10.1534L23.2836 10.4318C23.5487 10.5014 23.8437 10.5975 24.1685 10.7202C24.4966 10.8428 24.8098 11.0102 25.1081 11.2223C25.4097 11.4311 25.6583 11.6996 25.8539 12.0277C26.0494 12.3558 26.1472 12.7585 26.1472 13.2358C26.1472 13.786 26.003 14.2831 25.7147 14.7273C25.4296 15.1714 25.012 15.5244 24.4618 15.7862C23.915 16.0481 23.2504 16.179 22.4682 16.179C21.7391 16.179 21.1077 16.0613 20.574 15.826C20.0437 15.5907 19.6261 15.2625 19.3212 14.8416C19.0196 14.4207 18.8489 13.9318 18.8091 13.375H20.0819C20.115 13.7595 20.2443 14.0777 20.4696 14.3295C20.6983 14.5781 20.9867 14.7637 21.3347 14.8864C21.686 15.0057 22.0639 15.0653 22.4682 15.0653C22.9389 15.0653 23.3614 14.9891 23.736 14.8366C24.1105 14.6809 24.4071 14.4654 24.6259 14.1903C24.8446 13.9119 24.954 13.5871 24.954 13.2159C24.954 12.8778 24.8596 12.6027 24.6706 12.3906C24.4817 12.1785 24.2331 12.0062 23.9249 11.8736C23.6167 11.741 23.2836 11.625 22.9256 11.5256L21.6728 11.1676C20.8773 10.9389 20.2476 10.6125 19.7836 10.1882C19.3195 9.76397 19.0875 9.20881 19.0875 8.52273C19.0875 7.95265 19.2417 7.45549 19.5499 7.03125C19.8614 6.60369 20.2791 6.27225 20.8027 6.03693C21.3297 5.7983 21.918 5.67898 22.5676 5.67898C23.2239 5.67898 23.8072 5.79664 24.3176 6.03196C24.8281 6.26397 25.2324 6.58215 25.5307 6.98651C25.8323 7.39086 25.9914 7.8499 26.008 8.36364H24.8148Z" fill="#70747D"/>
<rect x="0.5" y="0.5" width="30" height="20" rx="4.5" stroke="#DADADA"/>
</svg>
