<svg width="24" height="24" viewBox="0 0 24 24" fill="none" xmlns="http://www.w3.org/2000/svg">
<g clip-path="url(#clip0_710_247)">
<path d="M0 12C0 5.3726 5.3726 0 12 0C18.6274 0 24 5.3726 24 12C24 18.6274 18.6274 24 12 24C5.3726 24 0 18.6274 0 12Z" fill="#0077B5"/>
<path fill-rule="evenodd" clip-rule="evenodd" d="M8.65941 7.41135C8.65941 8.1959 8.06886 8.82365 7.12061 8.82365H7.10321C6.19026 8.82365 5.60001 8.1959 5.60001 7.41135C5.60001 6.6102 6.20821 6 7.13851 6C8.06886 6 8.64176 6.6102 8.65941 7.41135ZM8.48026 9.9389V18.1098H5.76081V9.9389H8.48026ZM18.2876 18.1098L18.2877 13.4249C18.2877 10.9152 16.9461 9.74705 15.1566 9.74705C13.7127 9.74705 13.0663 10.5401 12.7054 11.0964V9.93915H9.98556C10.0214 10.7058 9.98556 18.11 9.98556 18.11H12.7054V13.5467C12.7054 13.3025 12.723 13.0589 12.7949 12.8841C12.9915 12.3962 13.439 11.8911 14.1903 11.8911C15.1747 11.8911 15.5683 12.6403 15.5683 13.7383V18.1098H18.2876Z" fill="white"/>
</g>
<defs>
<clipPath id="clip0_710_247">
<rect width="24" height="24" fill="white"/>
</clipPath>
</defs>
</svg>
